<?xml version="1.0" encoding="utf-8"?>
<!-- Generator: Adobe Illustrator 14.0.0, SVG Export Plug-In . SVG Version: 6.00 Build 43363)  -->
<!DOCTYPE svg PUBLIC "-//W3C//DTD SVG 1.1//EN" "http://www.w3.org/Graphics/SVG/1.1/DTD/svg11.dtd">
<svg version="1.1" id="レイヤー_1" xmlns="http://www.w3.org/2000/svg" xmlns:xlink="http://www.w3.org/1999/xlink" x="0px"
	 y="0px" width="196px" height="112px" viewBox="0 0 196 112" enable-background="new 0 0 196 112" xml:space="preserve">
<g>
	<path fill="none" stroke="#70FFFF" d="M17.162,1.902h164.661c5.5,0,10,4.5,10,10V97.98"/>
</g>
<g>
	<path fill="none" stroke="#70FFFF" d="M179.689,108.488H14.021c-5.5,0-10-4.5-10-10V15.41"/>
</g>
<line fill="none" stroke="#70FFFF" x1="191.822" y1="97.98" x2="179.689" y2="108.488"/>
<line fill="none" stroke="#70FFFF" x1="17.162" y1="1.902" x2="4.021" y2="15.41"/>
<line fill="none" stroke="#70FFFF" stroke-width="0.25" x1="2" y1="58.794" x2="2" y2="14.755"/>
<line fill="none" stroke="#70FFFF" stroke-width="0.25" x1="2" y1="99.795" x2="2" y2="82.066"/>
<polyline fill="none" stroke="#70FFFF" stroke-width="0.25" points="193.504,11.84 193.504,110.682 14.117,110.682 "/>
<path fill="none" stroke="#70FFFF" stroke-width="0.25" d="M100.936,0"/>
<path fill="none" stroke="#70FFFF" stroke-width="0.25" d="M16.725,0"/>
<line fill="none" stroke="#70FFFF" stroke-width="0.25" x1="2" y1="14.756" x2="14.89" y2="1.839"/>
<path fill="none" stroke="#70FFFF" stroke-width="0.25" d="M2,99.795c0,6.018,5.419,10.887,12.117,10.887"/>
<polyline opacity="0.64" fill="#70FFFF" stroke="#70FFFF" stroke-width="0.25" points="191.822,100.393 191.822,108.488 
	182.299,108.488 "/>
</svg>
